{
    "asset" : {
        "generator" : "Khronos glTF Blender I/O v3.2.43",
        "version" : "2.0"
    },
    "scene" : 0,
    "scenes" : [
        {
            "name" : "Scene",
            "nodes" : [
                0
            ]
        }
    ],
    "nodes" : [
        {
            "mesh" : 0,
            "name" : "Cube",
            "scale" : [
                1,
                0.4100005626678467,
                1
            ]
        }
    ],
    "materials" : [
        {
            "doubleSided" : true,
            "name" : "Material",
            "pbrMetallicRoughness" : {
                "baseColorFactor" : [
                    0.015758303925395012,
                    0.8000000715255737,
                    0.0009767244337126613,
                    1
                ],
                "metallicFactor" : 0,
                "roughnessFactor" : 0.4000000059604645
            }
        },
        {
            "doubleSided" : true,
            "name" : "Material.001",
            "pbrMetallicRoughness" : {
                "baseColorFactor" : [
                    0.800000011920929,
                    0.800000011920929,
                    0.800000011920929,
                    1
                ],
                "metallicFactor" : 0,
                "roughnessFactor" : 0.5
            }
        }
    ],
    "meshes" : [
        {
            "name" : "Cube",
            "primitives" : [
                {
                    "attributes" : {
                        "POSITION" : 0,
                        "NORMAL" : 1,
                        "TEXCOORD_0" : 2
                    },
                    "indices" : 3,
                    "material" : 0
                },
                {
                    "attributes" : {
                        "POSITION" : 4,
                        "NORMAL" : 5,
                        "TEXCOORD_0" : 6
                    },
                    "indices" : 7,
                    "material" : 1
                }
            ]
        }
    ],
    "accessors" : [
        {
            "bufferView" : 0,
            "componentType" : 5126,
            "count" : 18473,
            "max" : [
                2.288801908493042,
                1.0125718116760254,
                2.406379461288452
            ],
            "min" : [
                -2.278994083404541,
                -1.0125718116760254,
                -2.161416530609131
            ],
            "type" : "VEC3"
        },
        {
            "bufferView" : 1,
            "componentType" : 5126,
            "count" : 18473,
            "type" : "VEC3"
        },
        {
            "bufferView" : 2,
            "componentType" : 5126,
            "count" : 18473,
            "type" : "VEC2"
        },
        {
            "bufferView" : 3,
            "componentType" : 5123,
            "count" : 109824,
            "type" : "SCALAR"
        },
        {
            "bufferView" : 4,
            "componentType" : 5126,
            "count" : 32,
            "max" : [
                2.1013541221618652,
                -0.7582352161407471,
                2.1013541221618652
            ],
            "min" : [
                -2.1013541221618652,
                -0.7582352161407471,
                -2.1013541221618652
            ],
            "type" : "VEC3"
        },
        {
            "bufferView" : 5,
            "componentType" : 5126,
            "count" : 32,
            "type" : "VEC3"
        },
        {
            "bufferView" : 6,
            "componentType" : 5126,
            "count" : 32,
            "type" : "VEC2"
        },
        {
            "bufferView" : 7,
            "componentType" : 5123,
            "count" : 90,
            "type" : "SCALAR"
        }
    ],
    "bufferViews" : [
        {
            "buffer" : 0,
            "byteLength" : 221676,
            "byteOffset" : 0
        },
        {
            "buffer" : 0,
            "byteLength" : 221676,
            "byteOffset" : 221676
        },
        {
            "buffer" : 0,
            "byteLength" : 147784,
            "byteOffset" : 443352
        },
        {
            "buffer" : 0,
            "byteLength" : 219648,
            "byteOffset" : 591136
        },
        {
            "buffer" : 0,
            "byteLength" : 384,
            "byteOffset" : 810784
        },
        {
            "buffer" : 0,
            "byteLength" : 384,
            "byteOffset" : 811168
        },
        {
            "buffer" : 0,
            "byteLength" : 256,
            "byteOffset" : 811552
        },
        {
            "buffer" : 0,
            "byteLength" : 180,
            "byteOffset" : 811808
        }
    ],
    "buffers" : [
        {
            "byteLength" : 811988,
            "uri" : "data:application/octet-stream;base64,"
        }
    ]
}
