{
    "asset" : {
        "generator" : "Khronos glTF Blender I/O v3.2.43",
        "version" : "2.0"
    },
    "scene" : 0,
    "scenes" : [
        {
            "name" : "Scene",
            "nodes" : [
                0
            ]
        }
    ],
    "nodes" : [
        {
            "mesh" : 0,
            "name" : "Cube",
            "scale" : [
                1.4828230142593384,
                0.6079582571983337,
                1.4828230142593384
            ]
        }
    ],
    "materials" : [
        {
            "doubleSided" : true,
            "name" : "Material",
            "pbrMetallicRoughness" : {
                "baseColorFactor" : [
                    0.015758303925395012,
                    0.8000000715255737,
                    0.0009767244337126613,
                    1
                ],
                "metallicFactor" : 0,
                "roughnessFactor" : 0.4000000059604645
            }
        }
    ],
    "meshes" : [
        {
            "name" : "Cube",
            "primitives" : [
                {
                    "attributes" : {
                        "POSITION" : 0,
                        "NORMAL" : 1,
                        "TEXCOORD_0" : 2
                    },
                    "indices" : 3,
                    "material" : 0
                }
            ]
        }
    ],
    "accessors" : [
        {
            "bufferView" : 0,
            "componentType" : 5126,
            "count" : 1850,
            "max" : [
                0.9330140352249146,
                0.9984635710716248,
                0.9985898733139038
            ],
            "min" : [
                -0.9330140948295593,
                -0.9984635710716248,
                -0.9950135350227356
            ],
            "type" : "VEC3"
        },
        {
            "bufferView" : 1,
            "componentType" : 5126,
            "count" : 1850,
            "type" : "VEC3"
        },
        {
            "bufferView" : 2,
            "componentType" : 5126,
            "count" : 1850,
            "type" : "VEC2"
        },
        {
            "bufferView" : 3,
            "componentType" : 5123,
            "count" : 10368,
            "type" : "SCALAR"
        }
    ],
    "bufferViews" : [
        {
            "buffer" : 0,
            "byteLength" : 22200,
            "byteOffset" : 0
        },
        {
            "buffer" : 0,
            "byteLength" : 22200,
            "byteOffset" : 22200
        },
        {
            "buffer" : 0,
            "byteLength" : 14800,
            "byteOffset" : 44400
        },
        {
            "buffer" : 0,
            "byteLength" : 20736,
            "byteOffset" : 59200
        }
    ],
    "buffers" : [
        {
            "byteLength" : 79936,
            "uri" : "data:application/octet-stream;base64,"
        }
    ]
}
