{
    "asset" : {
        "generator" : "Khronos glTF Blender I/O v3.2.43",
        "version" : "2.0"
    },
    "scene" : 0,
    "scenes" : [
        {
            "name" : "Scene",
            "nodes" : [
                0
            ]
        }
    ],
    "nodes" : [
        {
            "mesh" : 0,
            "name" : "Cube",
            "scale" : [
                1,
                0.4100005626678467,
                1
            ]
        }
    ],
    "materials" : [
        {
            "doubleSided" : true,
            "name" : "Material",
            "pbrMetallicRoughness" : {
                "baseColorFactor" : [
                    0.015758303925395012,
                    0.8000000715255737,
                    0.0009767244337126613,
                    1
                ],
                "metallicFactor" : 0,
                "roughnessFactor" : 0.4000000059604645
            }
        }
    ],
    "meshes" : [
        {
            "name" : "Cube",
            "primitives" : [
                {
                    "attributes" : {
                        "POSITION" : 0,
                        "NORMAL" : 1,
                        "TEXCOORD_0" : 2
                    },
                    "indices" : 3,
                    "material" : 0
                }
            ]
        }
    ],
    "accessors" : [
        {
            "bufferView" : 0,
            "componentType" : 5126,
            "count" : 2025,
            "max" : [
                0.9330140352249146,
                0.9984635710716248,
                0.9985898733139038
            ],
            "min" : [
                -0.9330140948295593,
                -0.9984635710716248,
                -0.998753547668457
            ],
            "type" : "VEC3"
        },
        {
            "bufferView" : 1,
            "componentType" : 5126,
            "count" : 2025,
            "type" : "VEC3"
        },
        {
            "bufferView" : 2,
            "componentType" : 5126,
            "count" : 2025,
            "type" : "VEC2"
        },
        {
            "bufferView" : 3,
            "componentType" : 5123,
            "count" : 11520,
            "type" : "SCALAR"
        }
    ],
    "bufferViews" : [
        {
            "buffer" : 0,
            "byteLength" : 24300,
            "byteOffset" : 0
        },
        {
            "buffer" : 0,
            "byteLength" : 24300,
            "byteOffset" : 24300
        },
        {
            "buffer" : 0,
            "byteLength" : 16200,
            "byteOffset" : 48600
        },
        {
            "buffer" : 0,
            "byteLength" : 23040,
            "byteOffset" : 64800
        }
    ],
    "buffers" : [
        {
            "byteLength" : 87840,
            "uri" : "data:application/octet-stream;base64,"
        }
    ]
}
